{
  "accessors": [
    {
      "bufferView": 2,
      "componentType": 5126,
      "count": 17158,
      "max": [
        4.74821662902832,
        3.6455302238464355,
        2.503849983215332
      ],
      "min": [
        -5.171623706817627,
        0.06772500276565552,
        -2.4917099475860596
      ],
      "type": "VEC3"
    },
    {
      "bufferView": 2,
      "byteOffset": 205896,
      "componentType": 5126,
      "count": 17158,
      "max": [
        0.9999535083770752,
        0.9999227523803711,
        0.9999860525131226
      ],
      "min": [
        -0.9999647736549377,
        -0.9999240040779114,
        -0.9999666213989258
      ],
      "type": "VEC3"
    },
    {
      "bufferView": 1,
      "componentType": 5126,
      "count": 17158,
      "max": [
        0.991989016532898,
        -0.012602999806404114
      ],
      "min": [
        0.01027700025588274,
        -0.9914320111274719
      ],
      "type": "VEC2"
    },
    {
      "bufferView": 0,
      "componentType": 5125,
      "count": 84504,
      "type": "SCALAR"
    },
    {
      "bufferView": 2,
      "byteOffset": 411792,
      "componentType": 5126,
      "count": 17158,
      "max": [
        4.74821662902832,
        3.6455302238464355,
        2.503849983215332
      ],
      "min": [
        -5.171623706817627,
        0.06772500276565552,
        -2.4917099475860596
      ],
      "type": "VEC3"
    },
    {
      "bufferView": 2,
      "byteOffset": 617688,
      "componentType": 5126,
      "count": 17158,
      "max": [
        0.9999535083770752,
        0.9999227523803711,
        0.9999860525131226
      ],
      "min": [
        -0.9999647736549377,
        -0.9999240040779114,
        -0.9999666213989258
      ],
      "type": "VEC3"
    },
    {
      "bufferView": 1,
      "byteOffset": 137264,
      "componentType": 5126,
      "count": 17158,
      "max": [
        0.991989016532898,
        -0.012602999806404114
      ],
      "min": [
        0.01027700025588274,
        -0.9914320111274719
      ],
      "type": "VEC2"
    },
    {
      "bufferView": 0,
      "byteOffset": 338016,
      "componentType": 5125,
      "count": 84504,
      "type": "SCALAR"
    }
  ],
  "asset": {
    "extras": {
      "author": "vivimayza.vc (https://sketchfab.com/vivimayza.vc)",
      "license": "CC-BY-4.0 (http://creativecommons.org/licenses/by/4.0/)",
      "source": "https://sketchfab.com/3d-models/wii-toy-story-3-peas-in-a-pod-c726dc17c7f347e9ab9ade65b01e6f4f",
      "title": "Wii - Toy Story 3 - Peas In A Pod"
    },
    "generator": "Sketchfab-14.20.0",
    "version": "2.0"
  },
  "bufferViews": [
    {
      "buffer": 0,
      "byteLength": 676032,
      "name": "floatBufferViews",
      "target": 34963
    },
    {
      "buffer": 0,
      "byteLength": 274528,
      "byteOffset": 676032,
      "byteStride": 8,
      "name": "floatBufferViews",
      "target": 34962
    },
    {
      "buffer": 0,
      "byteLength": 823584,
      "byteOffset": 950560,
      "byteStride": 12,
      "name": "floatBufferViews",
      "target": 34962
    }
  ],
  "buffers": [
    {
      "byteLength": 1774144,
      "uri": "bug.bin"
    }
  ],
  "images": [
    {
      "uri": "textures/peasinapod_d_png_baseColor.png"
    }
  ],
  "materials": [
    {
      "doubleSided": true,
      "name": "peasinapod_d_png",
      "pbrMetallicRoughness": {
        "baseColorFactor": [
          0.8526173136148758,
          0.8526173136148758,
          0.8526173136148758,
          1.0
        ],
        "baseColorTexture": {
          "index": 0
        },
        "metallicFactor": 0.0
      }
    }
  ],
  "meshes": [
    {
      "name": "Object_0",
      "primitives": [
        {
          "attributes": {
            "NORMAL": 1,
            "POSITION": 0,
            "TEXCOORD_0": 2
          },
          "indices": 3,
          "material": 0,
          "mode": 4
        }
      ]
    },
    {
      "name": "Object_1",
      "primitives": [
        {
          "attributes": {
            "NORMAL": 5,
            "POSITION": 4,
            "TEXCOORD_0": 6
          },
          "indices": 7,
          "material": 0,
          "mode": 4
        }
      ]
    }
  ],
  "nodes": [
    {
      "children": [
        1
      ],
      "matrix": [
        1.0,
        0.0,
        0.0,
        0.0,
        0.0,
        2.220446049250313e-16,
        -1.0,
        0.0,
        0.0,
        1.0,
        2.220446049250313e-16,
        0.0,
        0.0,
        0.0,
        0.0,
        1.0
      ],
      "name": "Sketchfab_model"
    },
    {
      "children": [
        2
      ],
      "matrix": [
        1.0,
        0.0,
        0.0,
        0.0,
        0.0,
        -4.371139006309477e-08,
        0.999999999999999,
        0.0,
        0.0,
        -0.999999999999999,
        -4.371139006309477e-08,
        0.0,
        0.0,
        0.0,
        0.0,
        1.0
      ],
      "name": "Collada visual scene group"
    },
    {
      "children": [
        3,
        4
      ],
      "name": "Object_2"
    },
    {
      "mesh": 0,
      "name": "Object_3"
    },
    {
      "mesh": 1,
      "name": "Object_4"
    }
  ],
  "samplers": [
    {
      "magFilter": 9729,
      "minFilter": 9987,
      "wrapS": 10497,
      "wrapT": 10497
    }
  ],
  "scene": 0,
  "scenes": [
    {
      "name": "Sketchfab_Scene",
      "nodes": [
        0
      ]
    }
  ],
  "textures": [
    {
      "sampler": 0,
      "source": 0
    }
  ]
}
